<svg xmlns="http://www.w3.org/2000/svg" xmlns:xlink="http://www.w3.org/1999/xlink" width="64" zoomAndPan="magnify" viewBox="0 0 48 48" height="64" preserveAspectRatio="xMidYMid meet" version="1.0"><defs><clipPath id="2afb642846"><path d="M 8 3.460938 L 35 3.460938 L 35 21 L 8 21 Z M 8 3.460938 " clip-rule="nonzero"/></clipPath><clipPath id="ce21b7a33a"><path d="M 4 3.460938 L 40 3.460938 L 40 43.867188 L 4 43.867188 Z M 4 3.460938 " clip-rule="nonzero"/></clipPath><clipPath id="cdc849ed50"><path d="M 27 20 L 44.355469 20 L 44.355469 43.867188 L 27 43.867188 Z M 27 20 " clip-rule="nonzero"/></clipPath><clipPath id="f0556c9b4d"><path d="M 9 16 L 39 16 L 39 43.867188 L 9 43.867188 Z M 9 16 " clip-rule="nonzero"/></clipPath></defs><g clip-path="url(#2afb642846)"><path fill="#3e721d" d="M 14.96875 20.035156 L 14.902344 19.988281 C 14.8125 19.921875 6.179688 13.367188 9.488281 4.898438 C 9.726562 4.289062 10.414062 3.988281 11.023438 4.226562 C 11.636719 4.460938 11.933594 5.152344 11.699219 5.761719 C 9.039062 12.566406 16.246094 18.035156 16.316406 18.089844 C 16.84375 18.480469 16.953125 19.222656 16.5625 19.746094 C 16.183594 20.25 15.488281 20.371094 14.96875 20.035156 Z M 32.480469 19.542969 L 32.414062 19.496094 C 32.324219 19.429688 23.691406 12.875 27 4.40625 C 27.238281 3.792969 27.925781 3.496094 28.535156 3.734375 C 29.148438 3.96875 29.445312 4.660156 29.207031 5.269531 C 26.546875 12.074219 33.753906 17.539062 33.828125 17.59375 C 34.355469 17.984375 34.460938 18.726562 34.070312 19.253906 C 33.695312 19.753906 33 19.875 32.480469 19.542969 Z M 32.480469 19.542969 " fill-opacity="1" fill-rule="nonzero"/></g><g clip-path="url(#ce21b7a33a)"><path fill="#3e721d" d="M 15.925781 19.542969 L 15.996094 19.496094 C 16.082031 19.429688 24.71875 12.875 21.40625 4.40625 C 21.167969 3.792969 20.480469 3.496094 19.871094 3.734375 C 19.257812 3.96875 18.960938 4.660156 19.199219 5.269531 C 21.859375 12.074219 14.652344 17.539062 14.578125 17.59375 C 14.054688 17.984375 13.945312 18.726562 14.335938 19.253906 C 14.710938 19.753906 15.40625 19.875 15.925781 19.542969 Z M 5.089844 28.84375 C 4.921875 28.8125 4.761719 28.742188 4.617188 28.640625 C 4.089844 28.253906 3.972656 27.511719 4.359375 26.984375 C 9.578125 19.828125 18.949219 20.507812 19.347656 20.539062 C 19.996094 20.601562 20.480469 21.164062 20.429688 21.816406 C 20.375 22.46875 19.804688 22.953125 19.152344 22.902344 C 19.070312 22.898438 10.699219 22.3125 6.273438 28.378906 C 5.992188 28.761719 5.523438 28.929688 5.089844 28.84375 Z M 9.574219 43.035156 C 9.425781 43.121094 9.261719 43.171875 9.082031 43.1875 C 8.429688 43.238281 7.859375 42.753906 7.808594 42.097656 C 7.105469 33.269531 14.660156 27.683594 14.984375 27.449219 C 15.515625 27.070312 16.25 27.183594 16.636719 27.710938 C 17.023438 28.242188 16.90625 28.980469 16.378906 29.367188 C 16.308594 29.417969 9.574219 34.425781 10.171875 41.914062 C 10.207031 42.386719 9.960938 42.816406 9.574219 43.035156 Z M 33.40625 20.035156 L 33.472656 19.988281 C 33.558594 19.921875 42.195312 13.367188 38.882812 4.898438 C 38.644531 4.289062 37.957031 3.988281 37.347656 4.226562 C 36.734375 4.460938 36.4375 5.148438 36.675781 5.757812 C 39.335938 12.566406 32.128906 18.03125 32.054688 18.085938 C 31.53125 18.476562 31.421875 19.21875 31.8125 19.746094 C 32.1875 20.25 32.886719 20.371094 33.40625 20.035156 Z M 33.40625 20.035156 " fill-opacity="1" fill-rule="nonzero"/></g><g clip-path="url(#cdc849ed50)"><path fill="#3e721d" d="M 43.285156 28.84375 C 43.449219 28.8125 43.613281 28.742188 43.757812 28.640625 C 44.285156 28.253906 44.402344 27.511719 44.015625 26.984375 C 38.796875 19.828125 29.425781 20.507812 29.027344 20.539062 C 28.378906 20.601562 27.894531 21.164062 27.945312 21.816406 C 27.996094 22.46875 28.570312 22.953125 29.21875 22.902344 C 29.304688 22.898438 37.675781 22.3125 42.101562 28.378906 C 42.378906 28.761719 42.847656 28.929688 43.285156 28.84375 Z M 38.800781 43.035156 C 38.945312 43.121094 39.113281 43.171875 39.289062 43.1875 C 39.941406 43.238281 40.511719 42.753906 40.566406 42.097656 C 41.265625 33.269531 33.710938 27.683594 33.390625 27.449219 C 32.859375 27.070312 32.121094 27.183594 31.738281 27.710938 C 31.351562 28.242188 31.46875 28.980469 31.996094 29.367188 C 32.066406 29.417969 38.796875 34.425781 38.203125 41.914062 C 38.164062 42.386719 38.414062 42.816406 38.800781 43.035156 Z M 38.800781 43.035156 " fill-opacity="1" fill-rule="nonzero"/></g><path fill="#77b255" d="M 31.605469 11.535156 C 31.53125 8.425781 28.96875 5.886719 24.199219 5.886719 C 19.535156 5.886719 16.867188 8.425781 16.792969 11.535156 C 13.582031 13.652344 11.484375 17.339844 11.484375 22.476562 C 11.484375 30.960938 17.175781 42.53125 24.199219 42.53125 C 31.222656 42.53125 36.917969 30.960938 36.917969 22.476562 C 36.914062 17.339844 34.816406 13.648438 31.605469 11.535156 Z M 31.605469 11.535156 " fill-opacity="1" fill-rule="nonzero"/><path fill="#5c913b" d="M 13.511719 14.898438 C 12.238281 16.902344 11.484375 19.425781 11.484375 22.476562 C 11.484375 30.960938 17.175781 42.53125 24.199219 42.53125 C 31.222656 42.53125 36.917969 30.960938 36.917969 22.476562 C 36.917969 19.421875 36.164062 16.894531 34.886719 14.894531 C 32.035156 14.425781 28.480469 14.183594 24.210938 14.183594 C 19.929688 14.183594 16.367188 14.425781 13.511719 14.898438 Z M 13.511719 14.898438 " fill-opacity="1" fill-rule="nonzero"/><path fill="#3e721d" d="M 16.792969 11.535156 C 16.792969 11.535156 20.25 10.628906 24.355469 10.628906 C 28.464844 10.628906 31.605469 11.535156 31.605469 11.535156 C 31.605469 11.535156 31.734375 5.886719 24.199219 5.886719 C 16.667969 5.886719 16.792969 11.535156 16.792969 11.535156 Z M 16.792969 11.535156 " fill-opacity="1" fill-rule="nonzero"/><g clip-path="url(#f0556c9b4d)"><path fill="#77b255" d="M 22.082031 43.757812 C 15.261719 43.054688 9.894531 35.589844 9.894531 26.480469 C 9.894531 17.375 15.105469 16.996094 20.648438 16.996094 C 22.347656 16.996094 23.140625 17.683594 23.140625 20.457031 L 23.140625 42.429688 C 23.140625 43.816406 22.429688 43.796875 22.082031 43.757812 Z M 26.109375 43.757812 C 32.929688 43.054688 38.296875 35.589844 38.296875 26.480469 C 38.296875 17.375 33.082031 16.996094 27.542969 16.996094 C 25.84375 16.996094 25.050781 17.683594 25.050781 20.457031 L 25.050781 42.429688 C 25.050781 43.816406 25.757812 43.796875 26.109375 43.757812 Z M 26.109375 43.757812 " fill-opacity="1" fill-rule="nonzero"/></g><path fill="#5c913b" d="M 20.558594 41.886719 C 20.164062 41.886719 19.78125 41.695312 19.558594 41.339844 C 12.558594 30.378906 15.785156 17.839844 16.175781 16.449219 C 16.351562 15.820312 17 15.445312 17.636719 15.628906 C 18.265625 15.804688 18.632812 16.460938 18.457031 17.089844 C 18.09375 18.378906 15.109375 29.972656 21.550781 40.066406 C 21.902344 40.617188 21.742188 41.351562 21.191406 41.703125 C 20.996094 41.828125 20.773438 41.886719 20.558594 41.886719 Z M 27.648438 41.886719 C 27.425781 41.886719 27.207031 41.828125 27.011719 41.703125 C 26.457031 41.351562 26.296875 40.617188 26.648438 40.066406 C 31.882812 31.867188 31.058594 21.765625 29.742188 17.089844 C 29.566406 16.457031 29.933594 15.804688 30.5625 15.628906 C 31.195312 15.453125 31.847656 15.820312 32.023438 16.449219 C 32.417969 17.839844 35.644531 30.375 28.644531 41.339844 C 28.421875 41.695312 28.039062 41.886719 27.648438 41.886719 Z M 27.648438 41.886719 " fill-opacity="1" fill-rule="nonzero"/><path fill="#5c913b" d="M 14.734375 15.167969 L 33.691406 15.167969 L 33.691406 18.722656 L 14.734375 18.722656 Z M 14.734375 15.167969 " fill-opacity="1" fill-rule="nonzero"/><path fill="#77b255" d="M 10.5 21.90625 C 11.027344 20.269531 12.203125 18.539062 13.585938 17.550781 C 14.867188 16.636719 16.089844 16.671875 15.722656 18.34375 C 14.589844 23.519531 9.769531 24.164062 10.5 21.90625 Z M 18.152344 18.449219 C 18.847656 16.398438 22.402344 16.230469 22.929688 18.527344 C 23.460938 20.824219 21.71875 20.984375 20.292969 20.929688 C 18.867188 20.878906 17.574219 20.164062 18.152344 18.449219 Z M 37.65625 21.90625 C 37.128906 20.269531 35.953125 18.539062 34.570312 17.550781 C 33.289062 16.636719 32.0625 16.671875 32.429688 18.34375 C 33.566406 23.519531 38.386719 24.164062 37.65625 21.90625 Z M 30 18.449219 C 29.308594 16.398438 25.75 16.230469 25.222656 18.527344 C 24.695312 20.824219 26.4375 20.984375 27.863281 20.929688 C 29.289062 20.878906 30.582031 20.164062 30 18.449219 Z M 30 18.449219 " fill-opacity="1" fill-rule="nonzero"/></svg>