<svg xmlns="http://www.w3.org/2000/svg" xmlns:xlink="http://www.w3.org/1999/xlink" width="64" zoomAndPan="magnify" viewBox="0 0 48 48" height="64" preserveAspectRatio="xMidYMid meet" version="1.0"><defs><clipPath id="d327843668"><path d="M 2.0625 1.570312 L 45.9375 1.570312 L 45.9375 45.449219 L 2.0625 45.449219 Z M 2.0625 1.570312 " clip-rule="nonzero"/></clipPath><clipPath id="00b54d3cdf"><path d="M 24 1.570312 C 11.882812 1.570312 2.0625 11.394531 2.0625 23.511719 C 2.0625 35.625 11.882812 45.449219 24 45.449219 C 36.117188 45.449219 45.9375 35.625 45.9375 23.511719 C 45.9375 11.394531 36.117188 1.570312 24 1.570312 Z M 24 1.570312 " clip-rule="nonzero"/></clipPath><clipPath id="603a8597cc"><path d="M 0.0625 0.570312 L 43.9375 0.570312 L 43.9375 44.449219 L 0.0625 44.449219 Z M 0.0625 0.570312 " clip-rule="nonzero"/></clipPath><clipPath id="ac96f573e7"><path d="M 22 0.570312 C 9.882812 0.570312 0.0625 10.394531 0.0625 22.511719 C 0.0625 34.625 9.882812 44.449219 22 44.449219 C 34.117188 44.449219 43.9375 34.625 43.9375 22.511719 C 43.9375 10.394531 34.117188 0.570312 22 0.570312 Z M 22 0.570312 " clip-rule="nonzero"/></clipPath><clipPath id="ccc4a29a1d"><rect x="0" width="44" y="0" height="45"/></clipPath><clipPath id="813d36ae3d"><path d="M 31 28 L 41 28 L 41 33.726562 L 31 33.726562 Z M 31 28 " clip-rule="nonzero"/></clipPath><clipPath id="baa078c5f2"><path d="M 7 28 L 17 28 L 17 33.726562 L 7 33.726562 Z M 7 28 " clip-rule="nonzero"/></clipPath></defs><g clip-path="url(#d327843668)"><g clip-path="url(#00b54d3cdf)"><g transform="matrix(1, 0, 0, 1, 2, 1)"><g clip-path="url(#ccc4a29a1d)"><g clip-path="url(#603a8597cc)"><g clip-path="url(#ac96f573e7)"><path fill="#d92228" d="M 0.0625 0.570312 L 43.9375 0.570312 L 43.9375 44.449219 L 0.0625 44.449219 Z M 0.0625 0.570312 " fill-opacity="1" fill-rule="nonzero"/></g></g></g></g></g></g><path fill="#202020" d="M 40.320312 17.382812 C 40.601562 17.660156 40.851562 17.960938 41.070312 18.289062 C 41.289062 18.613281 41.476562 18.957031 41.625 19.320312 C 41.777344 19.683594 41.890625 20.058594 41.96875 20.441406 C 42.046875 20.828125 42.085938 21.21875 42.085938 21.609375 C 42.085938 22.003906 42.046875 22.390625 41.96875 22.777344 C 41.890625 23.160156 41.777344 23.535156 41.625 23.898438 C 41.476562 24.261719 41.289062 24.605469 41.070312 24.929688 C 40.851562 25.257812 40.601562 25.558594 40.320312 25.835938 C 40.042969 26.113281 39.738281 26.363281 39.40625 26.582031 C 39.078125 26.800781 38.730469 26.984375 38.367188 27.132812 C 38 27.285156 37.625 27.398438 37.238281 27.472656 C 36.847656 27.550781 36.457031 27.589844 36.0625 27.589844 C 35.664062 27.589844 35.273438 27.550781 34.886719 27.472656 C 34.5 27.398438 34.121094 27.285156 33.757812 27.132812 C 33.390625 26.984375 33.042969 26.800781 32.714844 26.582031 C 32.386719 26.363281 32.082031 26.113281 31.800781 25.835938 C 31.523438 25.558594 31.273438 25.257812 31.050781 24.929688 C 30.832031 24.605469 30.648438 24.261719 30.496094 23.898438 C 30.34375 23.535156 30.230469 23.160156 30.152344 22.777344 C 30.074219 22.390625 30.039062 22.003906 30.039062 21.609375 C 30.039062 21.21875 30.074219 20.828125 30.152344 20.441406 C 30.230469 20.058594 30.34375 19.683594 30.496094 19.320312 C 30.648438 18.957031 30.832031 18.613281 31.050781 18.289062 C 31.273438 17.960938 31.523438 17.660156 31.800781 17.382812 C 32.082031 17.105469 32.386719 16.855469 32.714844 16.636719 C 33.042969 16.421875 33.390625 16.234375 33.757812 16.085938 C 34.121094 15.9375 34.5 15.820312 34.886719 15.746094 C 35.273438 15.667969 35.664062 15.628906 36.0625 15.628906 C 36.457031 15.628906 36.847656 15.667969 37.238281 15.746094 C 37.625 15.820312 38 15.9375 38.367188 16.085938 C 38.730469 16.234375 39.078125 16.421875 39.40625 16.636719 C 39.738281 16.855469 40.042969 17.105469 40.320312 17.382812 Z M 40.320312 17.382812 " fill-opacity="1" fill-rule="nonzero"/><path fill="#ffffff" d="M 35.507812 20.941406 C 34.386719 22.054688 32.78125 22.265625 31.917969 21.414062 C 31.058594 20.558594 31.269531 18.964844 32.394531 17.851562 C 33.515625 16.738281 35.121094 16.527344 35.984375 17.378906 C 36.84375 18.234375 36.628906 19.828125 35.507812 20.941406 Z M 35.507812 20.941406 " fill-opacity="1" fill-rule="nonzero"/><path fill="#ffffff" d="M 37.710938 23.125 C 37.085938 23.742188 36.195312 23.859375 35.71875 23.386719 C 35.242188 22.914062 35.359375 22.03125 35.984375 21.414062 C 36.605469 20.796875 37.496094 20.679688 37.972656 21.152344 C 38.449219 21.625 38.332031 22.507812 37.710938 23.125 Z M 37.710938 23.125 " fill-opacity="1" fill-rule="nonzero"/><path fill="#202020" d="M 16.226562 17.382812 C 16.503906 17.660156 16.753906 17.960938 16.972656 18.289062 C 17.195312 18.613281 17.378906 18.957031 17.53125 19.320312 C 17.683594 19.683594 17.796875 20.058594 17.875 20.441406 C 17.949219 20.828125 17.988281 21.21875 17.988281 21.609375 C 17.988281 22.003906 17.949219 22.390625 17.875 22.777344 C 17.796875 23.160156 17.683594 23.535156 17.53125 23.898438 C 17.378906 24.261719 17.195312 24.605469 16.972656 24.929688 C 16.753906 25.257812 16.503906 25.558594 16.226562 25.835938 C 15.945312 26.113281 15.640625 26.363281 15.3125 26.582031 C 14.984375 26.800781 14.636719 26.984375 14.269531 27.132812 C 13.90625 27.285156 13.527344 27.398438 13.140625 27.472656 C 12.753906 27.550781 12.359375 27.589844 11.964844 27.589844 C 11.570312 27.589844 11.179688 27.550781 10.789062 27.472656 C 10.402344 27.398438 10.023438 27.285156 9.660156 27.132812 C 9.292969 26.984375 8.945312 26.800781 8.617188 26.582031 C 8.289062 26.363281 7.984375 26.113281 7.707031 25.835938 C 7.425781 25.558594 7.175781 25.257812 6.957031 24.929688 C 6.738281 24.605469 6.550781 24.261719 6.398438 23.898438 C 6.25 23.535156 6.132812 23.160156 6.058594 22.777344 C 5.980469 22.390625 5.941406 22.003906 5.941406 21.609375 C 5.941406 21.21875 5.980469 20.828125 6.058594 20.441406 C 6.132812 20.058594 6.25 19.683594 6.398438 19.320312 C 6.550781 18.957031 6.738281 18.613281 6.957031 18.289062 C 7.175781 17.960938 7.425781 17.660156 7.707031 17.382812 C 7.984375 17.105469 8.289062 16.855469 8.617188 16.636719 C 8.945312 16.421875 9.292969 16.234375 9.660156 16.085938 C 10.023438 15.933594 10.402344 15.820312 10.789062 15.746094 C 11.179688 15.667969 11.570312 15.628906 11.964844 15.628906 C 12.359375 15.628906 12.753906 15.667969 13.140625 15.746094 C 13.527344 15.820312 13.90625 15.933594 14.269531 16.085938 C 14.636719 16.234375 14.984375 16.421875 15.3125 16.636719 C 15.640625 16.855469 15.945312 17.105469 16.226562 17.382812 Z M 16.226562 17.382812 " fill-opacity="1" fill-rule="nonzero"/><path fill="#ffffff" d="M 11.414062 20.941406 C 10.289062 22.054688 8.683594 22.265625 7.824219 21.414062 C 6.960938 20.558594 7.175781 18.964844 8.296875 17.851562 C 9.417969 16.738281 11.027344 16.527344 11.886719 17.378906 C 12.746094 18.234375 12.535156 19.828125 11.414062 20.941406 Z M 11.414062 20.941406 " fill-opacity="1" fill-rule="nonzero"/><path fill="#ffffff" d="M 13.613281 23.125 C 12.992188 23.742188 12.101562 23.859375 11.625 23.386719 C 11.144531 22.914062 11.265625 22.03125 11.886719 21.414062 C 12.507812 20.796875 13.398438 20.679688 13.875 21.152344 C 14.351562 21.625 14.234375 22.507812 13.613281 23.125 Z M 13.613281 23.125 " fill-opacity="1" fill-rule="nonzero"/><g clip-path="url(#813d36ae3d)"><path fill="#ff5a67" d="M 40.164062 31 C 40.164062 31.359375 40.058594 31.707031 39.851562 32.042969 C 39.644531 32.375 39.347656 32.671875 38.964844 32.925781 C 38.578125 33.183594 38.132812 33.378906 37.632812 33.519531 C 37.128906 33.65625 36.605469 33.726562 36.0625 33.726562 C 35.519531 33.726562 34.996094 33.65625 34.492188 33.519531 C 33.988281 33.378906 33.546875 33.183594 33.160156 32.925781 C 32.777344 32.671875 32.480469 32.375 32.273438 32.042969 C 32.0625 31.707031 31.960938 31.359375 31.960938 31 C 31.960938 30.636719 32.0625 30.289062 32.273438 29.953125 C 32.480469 29.621094 32.777344 29.324219 33.160156 29.070312 C 33.546875 28.8125 33.988281 28.617188 34.492188 28.480469 C 34.996094 28.339844 35.519531 28.269531 36.0625 28.269531 C 36.605469 28.269531 37.128906 28.339844 37.632812 28.480469 C 38.132812 28.617188 38.578125 28.8125 38.964844 29.070312 C 39.347656 29.324219 39.644531 29.621094 39.851562 29.953125 C 40.058594 30.289062 40.164062 30.636719 40.164062 31 Z M 40.164062 31 " fill-opacity="1" fill-rule="nonzero"/></g><g clip-path="url(#baa078c5f2)"><path fill="#ff5a67" d="M 16.066406 31 C 16.066406 31.359375 15.964844 31.707031 15.757812 32.042969 C 15.546875 32.375 15.25 32.671875 14.867188 32.925781 C 14.480469 33.183594 14.039062 33.378906 13.535156 33.519531 C 13.035156 33.65625 12.511719 33.726562 11.964844 33.726562 C 11.421875 33.726562 10.898438 33.65625 10.394531 33.519531 C 9.894531 33.378906 9.449219 33.183594 9.066406 32.925781 C 8.679688 32.671875 8.382812 32.375 8.175781 32.042969 C 7.96875 31.707031 7.863281 31.359375 7.863281 31 C 7.863281 30.636719 7.96875 30.289062 8.175781 29.953125 C 8.382812 29.621094 8.679688 29.324219 9.066406 29.070312 C 9.449219 28.8125 9.894531 28.617188 10.394531 28.480469 C 10.898438 28.339844 11.421875 28.269531 11.964844 28.269531 C 12.511719 28.269531 13.035156 28.339844 13.535156 28.480469 C 14.039062 28.617188 14.480469 28.8125 14.867188 29.070312 C 15.25 29.324219 15.546875 29.621094 15.757812 29.953125 C 15.964844 30.289062 16.066406 30.636719 16.066406 31 Z M 16.066406 31 " fill-opacity="1" fill-rule="nonzero"/></g><path fill="#202020" d="M 29.914062 32.109375 C 29.527344 31.753906 29.335938 31.386719 29.339844 31.015625 C 29.347656 30.394531 29.890625 29.90625 29.902344 29.894531 C 30.082031 29.742188 30.101562 29.472656 29.945312 29.296875 C 29.789062 29.117188 29.519531 29.097656 29.339844 29.25 C 29.308594 29.277344 28.71875 29.792969 28.535156 30.570312 L 19.507812 30.570312 C 19.410156 30.105469 19.140625 29.667969 18.699219 29.261719 C 18.523438 29.101562 18.253906 29.113281 18.089844 29.285156 C 17.929688 29.457031 17.941406 29.726562 18.113281 29.886719 C 18.5 30.242188 18.691406 30.609375 18.6875 30.980469 C 18.679688 31.601562 18.132812 32.089844 18.125 32.101562 C 17.945312 32.253906 17.925781 32.523438 18.082031 32.699219 C 18.164062 32.796875 18.285156 32.847656 18.40625 32.847656 C 18.507812 32.847656 18.605469 32.816406 18.6875 32.746094 C 18.71875 32.71875 19.308594 32.203125 19.492188 31.425781 L 28.519531 31.425781 C 28.617188 31.890625 28.886719 32.328125 29.328125 32.734375 C 29.410156 32.8125 29.515625 32.847656 29.621094 32.847656 C 29.734375 32.847656 29.851562 32.800781 29.9375 32.710938 C 30.097656 32.539062 30.085938 32.269531 29.914062 32.109375 Z M 29.914062 32.109375 " fill-opacity="1" fill-rule="nonzero"/></svg>