<svg xmlns="http://www.w3.org/2000/svg" xmlns:xlink="http://www.w3.org/1999/xlink" width="64" zoomAndPan="magnify" viewBox="0 0 48 48" height="64" preserveAspectRatio="xMidYMid meet" version="1.0"><defs><clipPath id="d4b664836c"><path d="M 2.0625 1.570312 L 45.9375 1.570312 L 45.9375 45.449219 L 2.0625 45.449219 Z M 2.0625 1.570312 " clip-rule="nonzero"/></clipPath><clipPath id="4fdd512cd3"><path d="M 24 1.570312 C 11.882812 1.570312 2.0625 11.394531 2.0625 23.511719 C 2.0625 35.625 11.882812 45.449219 24 45.449219 C 36.117188 45.449219 45.9375 35.625 45.9375 23.511719 C 45.9375 11.394531 36.117188 1.570312 24 1.570312 Z M 24 1.570312 " clip-rule="nonzero"/></clipPath><clipPath id="5585501300"><path d="M 0.0625 0.570312 L 43.9375 0.570312 L 43.9375 44.449219 L 0.0625 44.449219 Z M 0.0625 0.570312 " clip-rule="nonzero"/></clipPath><clipPath id="c950ed0cc4"><path d="M 22 0.570312 C 9.882812 0.570312 0.0625 10.394531 0.0625 22.511719 C 0.0625 34.625 9.882812 44.449219 22 44.449219 C 34.117188 44.449219 43.9375 34.625 43.9375 22.511719 C 43.9375 10.394531 34.117188 0.570312 22 0.570312 Z M 22 0.570312 " clip-rule="nonzero"/></clipPath><clipPath id="c98ba16be2"><rect x="0" width="44" y="0" height="45"/></clipPath><clipPath id="5dd090415b"><path d="M 7.421875 8.199219 L 23 8.199219 L 23 28 L 7.421875 28 Z M 7.421875 8.199219 " clip-rule="nonzero"/></clipPath><clipPath id="0d460dded5"><path d="M 25 8.199219 L 40.484375 8.199219 L 40.484375 28 L 25 28 Z M 25 8.199219 " clip-rule="nonzero"/></clipPath><clipPath id="6e1a1b3310"><path d="M 30 11 L 40.484375 11 L 40.484375 28 L 30 28 Z M 30 11 " clip-rule="nonzero"/></clipPath><clipPath id="f8d8599407"><path d="M 12 30 L 36 30 L 36 39.054688 L 12 39.054688 Z M 12 30 " clip-rule="nonzero"/></clipPath><clipPath id="8423815429"><path d="M 24 34 L 25 34 L 25 39.054688 L 24 39.054688 Z M 24 34 " clip-rule="nonzero"/></clipPath></defs><g clip-path="url(#d4b664836c)"><g clip-path="url(#4fdd512cd3)"><g transform="matrix(1, 0, 0, 1, 2, 1)"><g clip-path="url(#c98ba16be2)"><g clip-path="url(#5585501300)"><g clip-path="url(#c950ed0cc4)"><path fill="#d92228" d="M 0.0625 0.570312 L 43.9375 0.570312 L 43.9375 44.449219 L 0.0625 44.449219 Z M 0.0625 0.570312 " fill-opacity="1" fill-rule="nonzero"/></g></g></g></g></g></g><g clip-path="url(#5dd090415b)"><path fill="#ffffff" d="M 22.304688 19.144531 C 22.304688 21.492188 21.785156 23.65625 20.90625 25.414062 C 18.796875 24.960938 16.582031 25.050781 14.503906 25.632812 C 13.089844 26.027344 11.738281 26.648438 10.527344 27.484375 C 8.839844 25.539062 7.761719 22.527344 7.761719 19.144531 C 7.761719 13.277344 11.015625 8.519531 15.03125 8.519531 C 17.441406 8.519531 19.578125 10.230469 20.902344 12.867188 C 21.785156 14.625 22.304688 16.796875 22.304688 19.144531 Z M 22.304688 19.144531 " fill-opacity="1" fill-rule="nonzero"/><path fill="#000000" d="M 10.472656 27.910156 L 10.285156 27.695312 C 8.476562 25.609375 7.441406 22.492188 7.441406 19.144531 C 7.441406 16.242188 8.214844 13.507812 9.625 11.449219 C 11.0625 9.351562 12.980469 8.199219 15.03125 8.199219 C 17.464844 8.199219 19.765625 9.886719 21.1875 12.71875 C 22.128906 14.597656 22.625 16.816406 22.625 19.144531 C 22.625 21.472656 22.128906 23.6875 21.191406 25.5625 L 21.078125 25.785156 L 20.835938 25.730469 C 18.808594 25.296875 16.648438 25.367188 14.589844 25.945312 C 13.183594 26.335938 11.878906 26.945312 10.707031 27.75 L 10.472656 27.914062 Z M 15.03125 8.84375 C 11.199219 8.84375 8.082031 13.464844 8.082031 19.144531 C 8.082031 22.222656 8.992188 25.085938 10.585938 27.054688 C 11.753906 26.285156 13.042969 25.703125 14.421875 25.320312 C 16.496094 24.738281 18.671875 24.644531 20.726562 25.046875 C 21.550781 23.3125 21.988281 21.277344 21.988281 19.144531 C 21.988281 17.011719 21.511719 14.796875 20.617188 13.011719 C 19.304688 10.402344 17.21875 8.84375 15.035156 8.84375 Z M 15.03125 8.84375 " fill-opacity="1" fill-rule="nonzero"/></g><path fill="#000000" d="M 22.304688 19.144531 C 22.304688 21.492188 21.785156 23.65625 20.90625 25.414062 C 18.796875 24.960938 16.582031 25.050781 14.503906 25.632812 C 13.460938 24.359375 12.753906 22.527344 12.589844 20.449219 C 14.304688 19.863281 16.019531 19.273438 17.734375 18.6875 C 18.214844 18.523438 19.101562 18.097656 18.476562 17.492188 C 18.171875 17.195312 17.574219 17.054688 17.191406 16.859375 C 16.640625 16.582031 16.070312 16.332031 15.503906 16.09375 C 15.015625 15.890625 14.191406 15.433594 13.453125 15.179688 C 14.425781 13.035156 16.089844 11.621094 17.980469 11.621094 C 19.054688 11.621094 20.058594 12.078125 20.902344 12.867188 C 21.785156 14.625 22.304688 16.796875 22.304688 19.144531 Z M 22.304688 19.144531 " fill-opacity="1" fill-rule="nonzero"/><g clip-path="url(#0d460dded5)"><path fill="#ffffff" d="M 40.148438 19.144531 C 40.148438 22.207031 39.261719 24.964844 37.84375 26.902344 C 37.6875 27.113281 37.527344 27.316406 37.359375 27.507812 C 37.246094 27.429688 37.128906 27.355469 37.015625 27.28125 C 35.535156 26.320312 33.859375 25.667969 32.128906 25.351562 C 30.433594 25.039062 28.679688 25.046875 26.996094 25.402344 C 26.117188 23.648438 25.601562 21.484375 25.601562 19.144531 C 25.601562 13.277344 28.855469 8.519531 32.875 8.519531 C 35.28125 8.519531 37.417969 10.230469 38.742188 12.867188 C 39.625 14.625 40.148438 16.796875 40.148438 19.144531 Z M 40.148438 19.144531 " fill-opacity="1" fill-rule="nonzero"/><path fill="#000000" d="M 37.410156 27.9375 L 37.179688 27.777344 C 37.058594 27.695312 36.945312 27.621094 36.84375 27.554688 C 35.421875 26.632812 33.769531 25.980469 32.070312 25.671875 C 30.398438 25.363281 28.667969 25.378906 27.0625 25.71875 L 26.820312 25.769531 L 26.710938 25.550781 C 25.773438 23.679688 25.28125 21.464844 25.28125 19.144531 C 25.28125 16.242188 26.058594 13.507812 27.46875 11.449219 C 28.902344 9.351562 30.824219 8.199219 32.875 8.199219 C 35.304688 8.199219 37.605469 9.886719 39.027344 12.71875 C 39.96875 14.597656 40.46875 16.816406 40.46875 19.144531 C 40.46875 22.183594 39.628906 25.007812 38.101562 27.09375 C 37.9375 27.320312 37.765625 27.53125 37.597656 27.722656 Z M 29.675781 24.804688 C 30.511719 24.804688 31.355469 24.882812 32.1875 25.035156 C 33.96875 25.359375 35.695312 26.042969 37.1875 27.007812 C 37.222656 27.03125 37.261719 27.054688 37.300781 27.082031 C 37.394531 26.964844 37.492188 26.839844 37.585938 26.710938 C 39.011719 24.761719 39.828125 22.003906 39.828125 19.144531 C 39.828125 16.917969 39.355469 14.796875 38.457031 13.011719 C 37.148438 10.402344 35.058594 8.84375 32.875 8.84375 C 29.039062 8.84375 25.921875 13.464844 25.921875 19.144531 C 25.921875 21.273438 26.355469 23.304688 27.175781 25.039062 C 27.988281 24.882812 28.828125 24.804688 29.675781 24.804688 Z M 29.675781 24.804688 " fill-opacity="1" fill-rule="nonzero"/></g><g clip-path="url(#6e1a1b3310)"><path fill="#000000" d="M 40.148438 19.144531 C 40.148438 22.207031 39.261719 24.964844 37.84375 26.902344 C 37.578125 27.058594 37.300781 27.1875 37.015625 27.28125 C 35.535156 26.320312 33.859375 25.667969 32.128906 25.351562 C 31.207031 24.097656 30.582031 22.378906 30.433594 20.449219 C 32.148438 19.863281 33.863281 19.277344 35.578125 18.6875 C 36.058594 18.523438 36.945312 18.097656 36.320312 17.492188 C 36.011719 17.195312 35.417969 17.054688 35.035156 16.859375 C 34.484375 16.582031 33.914062 16.332031 33.34375 16.09375 C 32.855469 15.890625 32.035156 15.433594 31.296875 15.179688 C 32.265625 13.035156 33.933594 11.621094 35.820312 11.621094 C 36.898438 11.621094 37.898438 12.082031 38.742188 12.867188 C 39.625 14.625 40.148438 16.796875 40.148438 19.144531 Z M 40.148438 19.144531 " fill-opacity="1" fill-rule="nonzero"/></g><path fill="#ffffff" d="M 34.671875 32.351562 C 33.757812 35.503906 29.269531 38.730469 23.875 38.730469 C 18.480469 38.730469 13.980469 35.492188 13.078125 32.339844 C 13.421875 32.242188 13.761719 32.101562 14.074219 31.917969 C 14.378906 31.738281 14.660156 31.519531 14.914062 31.269531 C 16.667969 33.183594 20.023438 34.480469 23.875 34.480469 C 27.726562 34.480469 31.046875 33.199219 32.8125 31.300781 C 33.054688 31.539062 33.328125 31.746094 33.621094 31.917969 C 33.949219 32.113281 34.304688 32.257812 34.671875 32.351562 Z M 34.671875 32.351562 " fill-opacity="1" fill-rule="nonzero"/><g clip-path="url(#f8d8599407)"><path fill="#000000" d="M 23.875 39.050781 C 18.1875 39.050781 13.683594 35.613281 12.769531 32.429688 L 12.679688 32.113281 L 12.992188 32.023438 C 13.316406 31.9375 13.625 31.808594 13.914062 31.636719 C 14.191406 31.472656 14.453125 31.273438 14.6875 31.039062 L 14.925781 30.804688 L 15.148438 31.046875 C 16.902344 32.964844 20.246094 34.152344 23.875 34.152344 C 27.503906 34.152344 30.8125 32.976562 32.574219 31.078125 L 32.796875 30.839844 L 33.03125 31.066406 C 33.261719 31.289062 33.511719 31.480469 33.777344 31.636719 C 34.078125 31.8125 34.40625 31.949219 34.75 32.039062 L 35.070312 32.121094 L 34.976562 32.441406 C 34.054688 35.621094 29.546875 39.050781 23.875 39.050781 Z M 13.480469 32.546875 C 13.992188 33.957031 15.242188 35.359375 16.957031 36.441406 C 18.96875 37.707031 21.425781 38.402344 23.875 38.402344 C 26.324219 38.402344 28.773438 37.707031 30.785156 36.445312 C 32.5 35.371094 33.746094 33.96875 34.265625 32.566406 C 33.980469 32.46875 33.710938 32.347656 33.457031 32.199219 C 33.238281 32.070312 33.023438 31.917969 32.824219 31.746094 C 30.898438 33.636719 27.507812 34.800781 23.875 34.800781 C 20.242188 34.800781 16.820312 33.628906 14.902344 31.71875 C 14.691406 31.898438 14.46875 32.0625 14.234375 32.199219 C 13.996094 32.339844 13.742188 32.457031 13.484375 32.546875 Z M 13.480469 32.546875 " fill-opacity="1" fill-rule="nonzero"/></g><path fill="#000000" d="M 11.929688 32.820312 C 11.59375 32.820312 11.257812 32.78125 10.933594 32.707031 C 10.761719 32.667969 10.652344 32.492188 10.691406 32.320312 C 10.730469 32.144531 10.902344 32.035156 11.074219 32.074219 C 11.699219 32.21875 12.363281 32.203125 12.992188 32.027344 C 13.316406 31.9375 13.625 31.808594 13.914062 31.640625 C 14.191406 31.472656 14.453125 31.273438 14.6875 31.039062 C 15.160156 30.570312 15.507812 29.996094 15.699219 29.371094 C 15.75 29.199219 15.929688 29.101562 16.097656 29.15625 C 16.265625 29.207031 16.363281 29.390625 16.308594 29.558594 C 16.089844 30.285156 15.683594 30.957031 15.136719 31.5 C 14.863281 31.773438 14.5625 32.007812 14.234375 32.199219 C 13.894531 32.394531 13.535156 32.546875 13.160156 32.648438 C 12.757812 32.761719 12.34375 32.820312 11.929688 32.820312 Z M 11.929688 32.820312 " fill-opacity="1" fill-rule="nonzero"/><path fill="#000000" d="M 35.761719 32.820312 C 35.367188 32.820312 34.976562 32.769531 34.589844 32.667969 C 34.191406 32.5625 33.808594 32.402344 33.457031 32.199219 C 33.148438 32.015625 32.855469 31.792969 32.589844 31.535156 C 32.023438 30.984375 31.605469 30.300781 31.382812 29.558594 C 31.328125 29.386719 31.425781 29.207031 31.59375 29.15625 C 31.761719 29.101562 31.941406 29.199219 31.992188 29.367188 C 32.1875 30.003906 32.546875 30.59375 33.03125 31.066406 C 33.261719 31.289062 33.511719 31.484375 33.78125 31.636719 C 34.078125 31.8125 34.40625 31.949219 34.753906 32.039062 C 35.367188 32.203125 36.011719 32.214844 36.617188 32.074219 C 36.789062 32.035156 36.960938 32.144531 37 32.320312 C 37.039062 32.492188 36.929688 32.667969 36.757812 32.707031 C 36.433594 32.78125 36.097656 32.816406 35.761719 32.816406 Z M 35.761719 32.820312 " fill-opacity="1" fill-rule="nonzero"/><g clip-path="url(#8423815429)"><path fill="#000000" d="M 24.402344 39.042969 C 24.226562 39.042969 24.082031 38.898438 24.082031 38.71875 C 24.074219 37.304688 24.066406 35.890625 24.058594 34.472656 C 24.058594 34.292969 24.199219 34.148438 24.378906 34.148438 C 24.554688 34.148438 24.699219 34.292969 24.699219 34.46875 C 24.707031 35.886719 24.714844 37.300781 24.722656 38.714844 C 24.722656 38.894531 24.578125 39.042969 24.402344 39.042969 Z M 24.402344 39.042969 " fill-opacity="1" fill-rule="nonzero"/></g><path fill="#000000" d="M 19.875 38.449219 C 19.851562 38.449219 19.828125 38.445312 19.804688 38.441406 C 19.632812 38.402344 19.523438 38.226562 19.5625 38.054688 L 19.722656 37.328125 C 19.960938 36.253906 20.195312 35.183594 20.433594 34.109375 C 20.472656 33.9375 20.644531 33.824219 20.816406 33.863281 C 20.988281 33.902344 21.097656 34.074219 21.058594 34.25 C 20.824219 35.324219 20.585938 36.394531 20.347656 37.46875 L 20.1875 38.195312 C 20.15625 38.34375 20.023438 38.449219 19.875 38.449219 Z M 19.875 38.449219 " fill-opacity="1" fill-rule="nonzero"/><path fill="#000000" d="M 28.878906 38.09375 C 28.757812 38.09375 28.640625 38.023438 28.585938 37.898438 C 28.183594 36.96875 27.78125 36.03125 27.378906 35.097656 L 27.011719 34.25 C 26.941406 34.085938 27.015625 33.894531 27.179688 33.824219 C 27.339844 33.753906 27.53125 33.828125 27.601562 33.992188 L 27.964844 34.839844 C 28.367188 35.773438 28.769531 36.707031 29.171875 37.640625 C 29.242188 37.804688 29.167969 37.996094 29.007812 38.066406 C 28.964844 38.085938 28.921875 38.09375 28.878906 38.09375 Z M 28.878906 38.09375 " fill-opacity="1" fill-rule="nonzero"/><path fill="#000000" d="M 32.570312 35.816406 C 32.476562 35.816406 32.382812 35.777344 32.320312 35.695312 C 31.652344 34.855469 30.984375 34.011719 30.316406 33.167969 C 30.207031 33.03125 30.226562 32.824219 30.367188 32.714844 C 30.503906 32.601562 30.703125 32.625 30.816406 32.765625 C 31.484375 33.609375 32.152344 34.449219 32.820312 35.292969 C 32.929688 35.429688 32.910156 35.636719 32.769531 35.746094 C 32.710938 35.792969 32.640625 35.816406 32.570312 35.816406 Z M 32.570312 35.816406 " fill-opacity="1" fill-rule="nonzero"/><path fill="#000000" d="M 16.105469 36.574219 C 16.054688 36.574219 16.007812 36.5625 15.960938 36.539062 C 15.800781 36.460938 15.738281 36.265625 15.820312 36.105469 C 16.332031 35.085938 16.84375 34.066406 17.359375 33.046875 C 17.4375 32.886719 17.628906 32.824219 17.789062 32.902344 C 17.945312 32.984375 18.007812 33.179688 17.929688 33.339844 C 17.417969 34.359375 16.902344 35.378906 16.390625 36.398438 C 16.332031 36.511719 16.21875 36.574219 16.105469 36.574219 Z M 16.105469 36.574219 " fill-opacity="1" fill-rule="nonzero"/><path fill="#000000" d="M 24.191406 29.785156 C 24.167969 29.785156 24.144531 29.785156 24.121094 29.78125 C 23.945312 29.773438 23.808594 29.621094 23.816406 29.445312 C 23.824219 29.265625 23.972656 29.125 24.152344 29.136719 C 24.4375 29.148438 24.742188 29.011719 24.96875 28.765625 C 25.191406 28.519531 25.304688 28.199219 25.265625 27.910156 C 25.226562 27.621094 25.039062 27.34375 24.761719 27.164062 C 24.480469 26.984375 24.152344 26.929688 23.875 27.015625 C 23.707031 27.070312 23.527344 26.976562 23.472656 26.804688 C 23.421875 26.636719 23.515625 26.453125 23.683594 26.398438 C 24.140625 26.253906 24.660156 26.332031 25.105469 26.617188 C 25.546875 26.902344 25.839844 27.34375 25.902344 27.824219 C 25.964844 28.308594 25.792969 28.8125 25.4375 29.203125 C 25.101562 29.574219 24.648438 29.785156 24.191406 29.785156 Z M 24.191406 29.785156 " fill-opacity="1" fill-rule="nonzero"/></svg>