<svg xmlns="http://www.w3.org/2000/svg" xmlns:xlink="http://www.w3.org/1999/xlink" width="64" zoomAndPan="magnify" viewBox="0 0 48 48" height="64" preserveAspectRatio="xMidYMid meet" version="1.0"><defs><clipPath id="b50254dea1"><path d="M 2.0625 1.570312 L 45.9375 1.570312 L 45.9375 45.449219 L 2.0625 45.449219 Z M 2.0625 1.570312 " clip-rule="nonzero"/></clipPath><clipPath id="dff43019fc"><path d="M 24 1.570312 C 11.882812 1.570312 2.0625 11.394531 2.0625 23.511719 C 2.0625 35.625 11.882812 45.449219 24 45.449219 C 36.117188 45.449219 45.9375 35.625 45.9375 23.511719 C 45.9375 11.394531 36.117188 1.570312 24 1.570312 Z M 24 1.570312 " clip-rule="nonzero"/></clipPath><clipPath id="36852d3a5e"><path d="M 0.0625 0.570312 L 43.9375 0.570312 L 43.9375 44.449219 L 0.0625 44.449219 Z M 0.0625 0.570312 " clip-rule="nonzero"/></clipPath><clipPath id="25095b787f"><path d="M 22 0.570312 C 9.882812 0.570312 0.0625 10.394531 0.0625 22.511719 C 0.0625 34.625 9.882812 44.449219 22 44.449219 C 34.117188 44.449219 43.9375 34.625 43.9375 22.511719 C 43.9375 10.394531 34.117188 0.570312 22 0.570312 Z M 22 0.570312 " clip-rule="nonzero"/></clipPath><clipPath id="9f239bb4c0"><rect x="0" width="44" y="0" height="45"/></clipPath><clipPath id="7f6e6671d2"><path d="M 28 15 L 44.570312 15 L 44.570312 25 L 28 25 Z M 28 15 " clip-rule="nonzero"/></clipPath><clipPath id="4d6c33c0d5"><path d="M 27 14 L 44.570312 14 L 44.570312 26 L 27 26 Z M 27 14 " clip-rule="nonzero"/></clipPath><clipPath id="c70deb308a"><path d="M 17 29 L 31 29 L 31 35.523438 L 17 35.523438 Z M 17 29 " clip-rule="nonzero"/></clipPath><clipPath id="aa3a0ca233"><path d="M 0.488281 11.28125 L 13 11.28125 L 13 23 L 0.488281 23 Z M 0.488281 11.28125 " clip-rule="nonzero"/></clipPath></defs><g clip-path="url(#b50254dea1)"><g clip-path="url(#dff43019fc)"><g transform="matrix(1, 0, 0, 1, 2, 1)"><g clip-path="url(#9f239bb4c0)"><g clip-path="url(#36852d3a5e)"><g clip-path="url(#25095b787f)"><path fill="#d92228" d="M 0.0625 0.570312 L 43.9375 0.570312 L 43.9375 44.449219 L 0.0625 44.449219 Z M 0.0625 0.570312 " fill-opacity="1" fill-rule="nonzero"/></g></g></g></g></g></g><path fill="#000000" d="M 24.742188 19.121094 L 24.742188 21.054688 C 24.742188 23.148438 23.023438 24.847656 20.898438 24.847656 L 12.832031 24.847656 C 12.324219 24.847656 11.839844 24.75 11.394531 24.570312 C 9.988281 24.007812 8.992188 22.644531 8.992188 21.054688 L 8.992188 19.121094 C 8.992188 17.027344 10.710938 15.328125 12.832031 15.328125 L 20.898438 15.328125 C 21.757812 15.328125 22.550781 15.605469 23.191406 16.074219 C 24.132812 16.765625 24.742188 17.871094 24.742188 19.117188 Z M 24.742188 19.121094 " fill-opacity="1" fill-rule="nonzero"/><path fill="#ffffff" d="M 17.363281 15.328125 C 17.355469 15.347656 17.347656 15.371094 17.339844 15.390625 C 16.273438 18.214844 15.207031 21.035156 14.140625 23.859375 L 13.765625 24.847656 L 12.835938 24.847656 C 12.324219 24.847656 11.839844 24.75 11.398438 24.570312 C 12.265625 22.273438 13.132812 19.980469 14 17.683594 L 14.890625 15.328125 Z M 17.363281 15.328125 " fill-opacity="1" fill-rule="nonzero"/><path fill="#ffffff" d="M 23.191406 16.074219 C 22.085938 18.855469 20.980469 21.632812 19.875 24.410156 C 19.820312 24.554688 19.761719 24.699219 19.703125 24.84375 L 15.53125 24.84375 L 18.308594 17.636719 C 18.601562 16.867188 18.898438 16.097656 19.195312 15.328125 L 20.898438 15.328125 C 21.757812 15.328125 22.550781 15.605469 23.191406 16.074219 Z M 23.191406 16.074219 " fill-opacity="1" fill-rule="nonzero"/><path fill="#000000" d="M 20.898438 25.390625 L 12.835938 25.390625 C 12.265625 25.390625 11.710938 25.285156 11.191406 25.074219 C 9.519531 24.410156 8.441406 22.832031 8.441406 21.050781 L 8.441406 19.117188 C 8.441406 16.726562 10.410156 14.78125 12.835938 14.78125 L 20.898438 14.78125 C 21.851562 14.78125 22.757812 15.078125 23.519531 15.636719 C 24.628906 16.453125 25.292969 17.753906 25.292969 19.121094 L 25.292969 21.054688 C 25.292969 23.445312 23.324219 25.390625 20.898438 25.390625 Z M 12.832031 15.871094 C 11.019531 15.871094 9.542969 17.328125 9.542969 19.121094 L 9.542969 21.054688 C 9.542969 22.386719 10.351562 23.566406 11.601562 24.066406 C 11.992188 24.222656 12.40625 24.300781 12.832031 24.300781 L 20.898438 24.300781 C 22.710938 24.300781 24.1875 22.84375 24.1875 21.054688 L 24.1875 19.121094 C 24.1875 18.082031 23.703125 17.132812 22.859375 16.511719 C 22.289062 16.09375 21.613281 15.871094 20.898438 15.871094 Z M 12.832031 15.871094 " fill-opacity="1" fill-rule="nonzero"/><g clip-path="url(#7f6e6671d2)"><path fill="#000000" d="M 44.003906 19.121094 L 44.003906 21.054688 C 44.003906 23.148438 42.285156 24.847656 40.160156 24.847656 L 32.09375 24.847656 C 31.585938 24.847656 31.101562 24.75 30.65625 24.570312 C 29.25 24.007812 28.253906 22.644531 28.253906 21.054688 L 28.253906 19.121094 C 28.253906 17.027344 29.972656 15.328125 32.09375 15.328125 L 40.160156 15.328125 C 41.019531 15.328125 41.8125 15.605469 42.453125 16.074219 C 43.394531 16.765625 44.003906 17.871094 44.003906 19.117188 Z M 44.003906 19.121094 " fill-opacity="1" fill-rule="nonzero"/></g><path fill="#ffffff" d="M 36.625 15.328125 C 36.617188 15.347656 36.609375 15.371094 36.601562 15.390625 C 35.535156 18.214844 34.46875 21.035156 33.402344 23.859375 L 33.027344 24.847656 L 32.09375 24.847656 C 31.585938 24.847656 31.101562 24.75 30.65625 24.570312 C 31.527344 22.273438 32.394531 19.980469 33.261719 17.683594 L 34.152344 15.328125 Z M 36.625 15.328125 " fill-opacity="1" fill-rule="nonzero"/><path fill="#ffffff" d="M 42.453125 16.074219 C 41.347656 18.855469 40.242188 21.632812 39.140625 24.410156 C 39.082031 24.554688 39.023438 24.699219 38.964844 24.84375 L 34.792969 24.84375 L 37.570312 17.636719 C 37.863281 16.867188 38.160156 16.097656 38.457031 15.328125 L 40.160156 15.328125 C 41.019531 15.328125 41.8125 15.605469 42.453125 16.074219 Z M 42.453125 16.074219 " fill-opacity="1" fill-rule="nonzero"/><g clip-path="url(#4d6c33c0d5)"><path fill="#000000" d="M 40.160156 25.390625 L 32.09375 25.390625 C 31.527344 25.390625 30.972656 25.285156 30.449219 25.074219 C 28.78125 24.410156 27.703125 22.832031 27.703125 21.050781 L 27.703125 19.117188 C 27.703125 16.726562 29.671875 14.78125 32.09375 14.78125 L 40.160156 14.78125 C 41.113281 14.78125 42.019531 15.078125 42.78125 15.636719 C 43.890625 16.453125 44.554688 17.753906 44.554688 19.121094 L 44.554688 21.054688 C 44.554688 23.445312 42.582031 25.390625 40.160156 25.390625 Z M 32.09375 15.871094 C 30.28125 15.871094 28.804688 17.328125 28.804688 19.121094 L 28.804688 21.054688 C 28.804688 22.386719 29.613281 23.566406 30.863281 24.066406 C 31.253906 24.222656 31.667969 24.300781 32.09375 24.300781 L 40.160156 24.300781 C 41.972656 24.300781 43.449219 22.84375 43.449219 21.054688 L 43.449219 19.121094 C 43.449219 18.082031 42.964844 17.132812 42.121094 16.511719 C 41.550781 16.09375 40.875 15.871094 40.160156 15.871094 Z M 32.09375 15.871094 " fill-opacity="1" fill-rule="nonzero"/></g><path fill="#000000" d="M 29.003906 27.746094 C 28.992188 27.761719 28.988281 27.78125 28.988281 27.796875 C 28.992188 27.777344 28.996094 27.757812 29.003906 27.746094 Z M 29.003906 27.746094 " fill-opacity="1" fill-rule="nonzero"/><path fill="#000000" d="M 28.726562 28.402344 C 28.71875 28.410156 28.703125 28.425781 28.699219 28.4375 C 28.703125 28.429688 28.707031 28.425781 28.714844 28.417969 C 28.71875 28.410156 28.722656 28.40625 28.726562 28.402344 Z M 28.726562 28.402344 " fill-opacity="1" fill-rule="nonzero"/><path fill="#000000" d="M 27.75 28.988281 C 27.746094 28.984375 27.722656 28.988281 27.691406 29 C 27.691406 29 27.691406 29 27.695312 29 C 27.710938 28.996094 27.730469 28.992188 27.75 28.988281 Z M 27.75 28.988281 " fill-opacity="1" fill-rule="nonzero"/><path fill="#000000" d="M 29.195312 25.734375 C 28.722656 25.347656 28.140625 25.101562 27.519531 25.117188 C 27.230469 25.125 26.949219 25.359375 26.964844 25.660156 C 26.972656 25.949219 27.203125 26.214844 27.511719 26.207031 C 27.558594 26.207031 27.605469 26.207031 27.652344 26.207031 C 27.671875 26.207031 27.691406 26.214844 27.714844 26.21875 C 27.714844 26.214844 27.722656 26.210938 27.75 26.214844 C 27.757812 26.21875 27.765625 26.21875 27.773438 26.222656 C 27.78125 26.222656 27.789062 26.222656 27.792969 26.222656 C 27.789062 26.222656 27.785156 26.222656 27.78125 26.222656 C 27.792969 26.226562 27.804688 26.226562 27.816406 26.230469 C 27.875 26.242188 27.929688 26.257812 27.984375 26.277344 C 28.019531 26.285156 28.050781 26.300781 28.082031 26.3125 C 28.097656 26.320312 28.113281 26.324219 28.125 26.332031 C 28.214844 26.375 28.300781 26.425781 28.382812 26.480469 C 28.378906 26.480469 28.390625 26.488281 28.402344 26.496094 C 28.386719 26.480469 28.375 26.472656 28.410156 26.5 C 28.414062 26.503906 28.417969 26.507812 28.421875 26.511719 C 28.433594 26.515625 28.4375 26.523438 28.4375 26.523438 C 28.4375 26.523438 28.4375 26.523438 28.433594 26.519531 C 28.460938 26.542969 28.488281 26.566406 28.515625 26.589844 C 28.589844 26.660156 28.648438 26.75 28.722656 26.8125 C 28.730469 26.824219 28.742188 26.835938 28.75 26.847656 C 28.773438 26.886719 28.800781 26.925781 28.824219 26.96875 C 28.847656 27.007812 28.867188 27.046875 28.886719 27.089844 C 28.894531 27.101562 28.898438 27.109375 28.90625 27.121094 C 28.90625 27.121094 28.90625 27.117188 28.902344 27.117188 C 28.902344 27.117188 28.90625 27.121094 28.90625 27.125 C 28.90625 27.128906 28.910156 27.132812 28.910156 27.136719 C 28.941406 27.203125 28.921875 27.171875 28.910156 27.136719 C 28.925781 27.214844 28.96875 27.296875 28.984375 27.378906 C 28.988281 27.394531 28.992188 27.417969 28.996094 27.441406 C 28.996094 27.4375 29.003906 27.449219 29.003906 27.472656 C 29.003906 27.480469 29.003906 27.488281 29.003906 27.496094 C 29.007812 27.503906 29.007812 27.507812 29.011719 27.515625 C 29.007812 27.507812 29.007812 27.503906 29.003906 27.5 C 29.007812 27.523438 29.007812 27.550781 29.007812 27.574219 C 29.007812 27.621094 29.007812 27.667969 29.003906 27.714844 C 29.003906 27.726562 29.003906 27.734375 29.003906 27.746094 C 29.003906 27.746094 29.003906 27.742188 29.007812 27.742188 C 29.003906 27.742188 29.003906 27.746094 29.003906 27.75 C 29.003906 27.761719 29 27.773438 29 27.785156 C 28.996094 27.824219 28.992188 27.816406 28.988281 27.800781 C 28.984375 27.828125 28.984375 27.859375 28.980469 27.875 C 28.96875 27.925781 28.953125 27.976562 28.933594 28.023438 C 28.929688 28.046875 28.921875 28.066406 28.910156 28.089844 C 28.910156 28.09375 28.90625 28.101562 28.90625 28.109375 C 28.90625 28.105469 28.90625 28.105469 28.90625 28.101562 C 28.921875 28.027344 28.910156 28.089844 28.898438 28.117188 C 28.890625 28.132812 28.882812 28.148438 28.875 28.160156 C 28.832031 28.246094 28.78125 28.324219 28.726562 28.402344 C 28.726562 28.398438 28.730469 28.394531 28.730469 28.398438 C 28.730469 28.398438 28.722656 28.40625 28.714844 28.417969 C 28.710938 28.417969 28.710938 28.421875 28.707031 28.425781 C 28.6875 28.457031 28.6875 28.449219 28.695312 28.4375 C 28.691406 28.445312 28.683594 28.449219 28.6875 28.449219 C 28.65625 28.484375 28.625 28.519531 28.589844 28.550781 C 28.558594 28.585938 28.523438 28.617188 28.488281 28.648438 C 28.472656 28.664062 28.453125 28.675781 28.4375 28.691406 C 28.429688 28.695312 28.425781 28.703125 28.421875 28.707031 C 28.410156 28.710938 28.402344 28.71875 28.394531 28.722656 C 28.371094 28.742188 28.347656 28.757812 28.320312 28.773438 C 28.273438 28.804688 28.222656 28.832031 28.167969 28.859375 C 28.148438 28.867188 28.128906 28.878906 28.105469 28.890625 C 28.085938 28.898438 27.996094 28.925781 28.078125 28.90625 C 28.070312 28.90625 28.066406 28.910156 28.0625 28.910156 C 28.035156 28.917969 28.007812 28.929688 27.980469 28.9375 C 27.933594 28.953125 27.878906 28.96875 27.832031 28.976562 C 27.808594 28.984375 27.777344 28.984375 27.75 28.988281 C 27.753906 28.992188 27.746094 29 27.71875 29 C 27.710938 29 27.703125 29 27.695312 29.003906 C 27.6875 29.003906 27.683594 29.003906 27.675781 29.007812 C 27.679688 29.003906 27.683594 29.003906 27.691406 29.003906 C 27.664062 29.003906 27.640625 29.007812 27.613281 29.007812 C 27.554688 29.007812 27.496094 29.007812 27.441406 29.003906 C 27.152344 28.984375 26.875 29.261719 26.882812 29.546875 C 26.898438 29.855469 27.125 30.070312 27.433594 30.09375 C 28.527344 30.164062 29.535156 29.433594 29.941406 28.464844 C 30.34375 27.511719 29.992188 26.378906 29.195312 25.734375 Z M 29.195312 25.734375 " fill-opacity="1" fill-rule="nonzero"/><path fill="#000000" d="M 28.992188 27.441406 C 28.992188 27.441406 28.988281 27.464844 29.003906 27.5 C 29.003906 27.5 29.003906 27.496094 29.003906 27.496094 C 29 27.476562 28.996094 27.457031 28.996094 27.4375 Z M 28.992188 27.441406 " fill-opacity="1" fill-rule="nonzero"/><path fill="#000000" d="M 27.71875 26.21875 C 27.71875 26.222656 27.742188 26.226562 27.78125 26.222656 C 27.777344 26.222656 27.777344 26.222656 27.773438 26.222656 C 27.757812 26.222656 27.738281 26.222656 27.71875 26.21875 Z M 27.71875 26.21875 " fill-opacity="1" fill-rule="nonzero"/><path fill="#000000" d="M 28.402344 26.496094 C 28.414062 26.503906 28.429688 26.515625 28.433594 26.519531 C 28.429688 26.515625 28.425781 26.511719 28.421875 26.507812 C 28.417969 26.503906 28.410156 26.5 28.402344 26.496094 Z M 28.402344 26.496094 " fill-opacity="1" fill-rule="nonzero"/><path fill="#000000" d="M 28.90625 27.121094 C 28.90625 27.121094 28.90625 27.128906 28.910156 27.132812 C 28.910156 27.132812 28.90625 27.125 28.90625 27.125 Z M 28.90625 27.121094 " fill-opacity="1" fill-rule="nonzero"/><path fill="#000000" d="M 28.613281 33.761719 C 28.613281 33.761719 28.609375 33.765625 28.605469 33.765625 C 28.605469 33.765625 28.609375 33.765625 28.609375 33.765625 C 28.609375 33.765625 28.613281 33.761719 28.613281 33.761719 Z M 28.613281 33.761719 " fill-opacity="1" fill-rule="nonzero"/><g clip-path="url(#c70deb308a)"><path fill="#000000" d="M 30.03125 33.640625 C 29.867188 33.386719 29.546875 33.292969 29.277344 33.441406 C 29.105469 33.535156 28.933594 33.621094 28.753906 33.699219 C 28.714844 33.71875 28.671875 33.738281 28.628906 33.753906 C 28.625 33.757812 28.617188 33.761719 28.613281 33.761719 C 28.636719 33.753906 28.652344 33.746094 28.609375 33.765625 C 28.597656 33.769531 28.585938 33.773438 28.574219 33.777344 C 28.578125 33.777344 28.589844 33.773438 28.605469 33.765625 C 28.601562 33.765625 28.601562 33.765625 28.601562 33.769531 C 28.507812 33.804688 28.417969 33.839844 28.328125 33.871094 C 27.96875 33.996094 27.597656 34.097656 27.21875 34.171875 C 27.132812 34.1875 27.042969 34.203125 26.953125 34.21875 C 26.910156 34.222656 26.867188 34.230469 26.828125 34.234375 C 26.832031 34.234375 26.78125 34.242188 26.769531 34.242188 C 26.578125 34.265625 26.382812 34.28125 26.1875 34.289062 C 25.804688 34.304688 25.417969 34.292969 25.039062 34.253906 C 24.992188 34.25 24.945312 34.242188 24.902344 34.238281 C 24.882812 34.238281 24.867188 34.234375 24.847656 34.234375 C 24.761719 34.21875 24.671875 34.207031 24.585938 34.191406 C 24.398438 34.15625 24.214844 34.117188 24.035156 34.074219 C 23.664062 33.980469 23.308594 33.859375 22.957031 33.71875 C 22.945312 33.710938 22.929688 33.707031 22.914062 33.699219 C 22.867188 33.679688 22.820312 33.65625 22.773438 33.636719 C 22.6875 33.59375 22.597656 33.550781 22.511719 33.507812 C 22.34375 33.421875 22.183594 33.328125 22.023438 33.230469 C 21.855469 33.125 21.695312 33.019531 21.539062 32.902344 C 21.535156 32.894531 21.527344 32.890625 21.511719 32.878906 C 21.476562 32.851562 21.441406 32.820312 21.40625 32.792969 C 21.332031 32.726562 21.257812 32.660156 21.1875 32.59375 C 21.050781 32.464844 20.902344 32.320312 20.789062 32.167969 C 20.789062 32.167969 20.78125 32.160156 20.765625 32.136719 C 20.75 32.113281 20.734375 32.09375 20.71875 32.074219 C 20.691406 32.03125 20.664062 31.988281 20.632812 31.945312 C 20.574219 31.855469 20.519531 31.761719 20.472656 31.664062 C 20.449219 31.621094 20.429688 31.578125 20.410156 31.539062 C 20.402344 31.515625 20.394531 31.492188 20.386719 31.46875 C 20.351562 31.375 20.324219 31.28125 20.300781 31.183594 C 20.289062 31.140625 20.28125 31.09375 20.273438 31.050781 C 20.273438 31.03125 20.269531 31.015625 20.269531 30.996094 C 20.257812 30.886719 20.257812 30.773438 20.265625 30.660156 C 20.265625 30.652344 20.265625 30.644531 20.265625 30.640625 C 20.496094 30.570312 20.71875 30.480469 20.929688 30.367188 C 21.183594 30.234375 21.285156 29.863281 21.128906 29.621094 C 20.964844 29.367188 20.648438 29.28125 20.375 29.421875 C 20.328125 29.449219 20.277344 29.472656 20.226562 29.496094 C 20.207031 29.507812 20.1875 29.515625 20.171875 29.523438 C 20.078125 29.558594 19.988281 29.589844 19.894531 29.617188 C 19.800781 29.644531 19.707031 29.667969 19.613281 29.683594 C 19.574219 29.691406 19.53125 29.699219 19.492188 29.707031 C 19.488281 29.707031 19.488281 29.707031 19.484375 29.707031 C 19.46875 29.707031 19.449219 29.707031 19.433594 29.710938 C 19.238281 29.726562 19.046875 29.730469 18.851562 29.710938 C 18.816406 29.707031 18.640625 29.710938 18.792969 29.707031 C 18.753906 29.707031 18.710938 29.691406 18.671875 29.6875 C 18.5625 29.664062 18.453125 29.636719 18.347656 29.605469 C 18.074219 29.523438 17.734375 29.699219 17.667969 29.984375 C 17.601562 30.277344 17.753906 30.566406 18.050781 30.65625 C 18.410156 30.761719 18.785156 30.8125 19.15625 30.808594 C 19.136719 32.519531 20.703125 33.847656 22.140625 34.535156 C 23.699219 35.285156 25.449219 35.527344 27.160156 35.277344 C 28.09375 35.140625 29 34.832031 29.828125 34.382812 C 30.078125 34.242188 30.1875 33.882812 30.027344 33.636719 Z M 30.03125 33.640625 " fill-opacity="1" fill-rule="nonzero"/></g><path fill="#ffffff" d="M 1.667969 16.597656 C 2.710938 16.417969 3.699219 15.945312 4.488281 15.246094 C 5.273438 14.550781 5.855469 13.632812 6.148438 12.628906 C 6.949219 14.582031 8.8125 15.972656 10.90625 16.390625 C 9.949219 17.160156 8.949219 17.882812 7.992188 18.652344 C 7.617188 18.953125 7.242188 19.257812 6.945312 19.632812 C 6.652344 20.007812 6.441406 20.46875 6.449219 20.941406 C 5.460938 18.9375 3.757812 17.445312 1.667969 16.597656 Z M 1.667969 16.597656 " fill-opacity="1" fill-rule="nonzero"/><path fill="#000000" d="M 5.0625 13.898438 C 5.078125 13.875 5.078125 13.859375 5.042969 13.925781 C 5.046875 13.921875 5.050781 13.917969 5.050781 13.914062 C 5.054688 13.910156 5.058594 13.90625 5.0625 13.898438 Z M 5.0625 13.898438 " fill-opacity="1" fill-rule="nonzero"/><path fill="#000000" d="M 5.042969 19.652344 C 5.078125 19.71875 5.078125 19.703125 5.0625 19.679688 C 5.058594 19.671875 5.054688 19.667969 5.050781 19.660156 C 5.050781 19.65625 5.046875 19.65625 5.042969 19.652344 Z M 5.042969 19.652344 " fill-opacity="1" fill-rule="nonzero"/><path fill="#000000" d="M 7.792969 13.925781 C 7.757812 13.859375 7.757812 13.875 7.773438 13.898438 C 7.777344 13.902344 7.78125 13.910156 7.785156 13.914062 C 7.789062 13.917969 7.789062 13.921875 7.792969 13.925781 Z M 7.792969 13.925781 " fill-opacity="1" fill-rule="nonzero"/><g clip-path="url(#aa3a0ca233)"><path fill="#000000" d="M 11.910156 16.25 C 11.625 16.152344 11.335938 16.050781 11.046875 15.945312 C 10.910156 15.894531 10.773438 15.84375 10.640625 15.789062 C 10.570312 15.765625 10.503906 15.738281 10.4375 15.710938 C 10.441406 15.710938 10.445312 15.714844 10.449219 15.714844 C 10.4375 15.710938 10.421875 15.703125 10.40625 15.695312 C 10.382812 15.6875 10.355469 15.675781 10.328125 15.664062 C 9.847656 15.460938 9.382812 15.226562 8.945312 14.945312 C 8.835938 14.875 8.730469 14.796875 8.625 14.722656 C 8.621094 14.71875 8.617188 14.71875 8.613281 14.714844 C 8.59375 14.699219 8.574219 14.683594 8.554688 14.667969 C 8.507812 14.632812 8.464844 14.597656 8.417969 14.558594 C 8.238281 14.40625 8.070312 14.238281 7.910156 14.0625 C 7.871094 14.015625 7.832031 13.972656 7.792969 13.925781 C 7.792969 13.925781 7.792969 13.929688 7.796875 13.933594 C 7.792969 13.925781 7.789062 13.921875 7.785156 13.914062 C 7.777344 13.910156 7.777344 13.902344 7.773438 13.898438 C 7.765625 13.886719 7.757812 13.878906 7.75 13.867188 C 7.679688 13.773438 7.609375 13.679688 7.546875 13.582031 C 7.484375 13.480469 7.425781 13.382812 7.371094 13.277344 C 7.34375 13.226562 7.316406 13.175781 7.292969 13.125 C 7.28125 13.101562 7.273438 13.078125 7.261719 13.058594 C 7.179688 12.84375 7.109375 12.628906 7.0625 12.402344 C 7.0625 12.390625 7.058594 12.375 7.050781 12.355469 C 7.050781 12.351562 7.050781 12.34375 7.050781 12.320312 C 7.042969 12.269531 7.039062 12.21875 7.035156 12.167969 C 7.027344 12.054688 7.027344 11.9375 7.03125 11.824219 C 7.042969 11.519531 6.765625 11.292969 6.476562 11.28125 C 6.457031 11.28125 6.4375 11.28125 6.417969 11.28125 C 6.398438 11.28125 6.378906 11.28125 6.359375 11.28125 C 6.070312 11.292969 5.792969 11.519531 5.804688 11.824219 C 5.808594 11.9375 5.808594 12.054688 5.800781 12.167969 C 5.796875 12.21875 5.792969 12.269531 5.785156 12.320312 C 5.78125 12.34375 5.78125 12.351562 5.78125 12.355469 C 5.777344 12.375 5.773438 12.390625 5.769531 12.402344 C 5.726562 12.628906 5.65625 12.84375 5.574219 13.058594 C 5.5625 13.082031 5.554688 13.101562 5.542969 13.125 C 5.519531 13.175781 5.492188 13.226562 5.464844 13.277344 C 5.410156 13.382812 5.351562 13.480469 5.289062 13.582031 C 5.222656 13.679688 5.15625 13.773438 5.085938 13.867188 C 5.078125 13.878906 5.070312 13.886719 5.0625 13.898438 C 5.058594 13.902344 5.054688 13.910156 5.050781 13.914062 C 5.046875 13.921875 5.042969 13.925781 5.039062 13.933594 C 5.039062 13.929688 5.042969 13.925781 5.042969 13.925781 C 5.003906 13.972656 4.964844 14.019531 4.921875 14.0625 C 4.765625 14.238281 4.597656 14.40625 4.417969 14.558594 C 4.371094 14.597656 4.328125 14.632812 4.28125 14.667969 C 4.261719 14.683594 4.238281 14.699219 4.21875 14.714844 C 4.214844 14.71875 4.214844 14.71875 4.210938 14.722656 C 4.105469 14.796875 4 14.875 3.890625 14.945312 C 3.453125 15.226562 2.984375 15.460938 2.507812 15.664062 C 2.480469 15.675781 2.453125 15.6875 2.425781 15.695312 C 2.414062 15.703125 2.398438 15.710938 2.386719 15.714844 C 2.390625 15.714844 2.394531 15.710938 2.398438 15.710938 C 2.332031 15.738281 2.261719 15.765625 2.195312 15.789062 C 2.058594 15.84375 1.921875 15.894531 1.785156 15.945312 C 1.5 16.050781 1.210938 16.152344 0.921875 16.25 C 0.695312 16.332031 0.507812 16.546875 0.515625 16.789062 C 0.507812 17.03125 0.695312 17.242188 0.925781 17.324219 C 1.214844 17.425781 1.5 17.527344 1.789062 17.632812 C 1.925781 17.683594 2.0625 17.734375 2.195312 17.785156 C 2.265625 17.8125 2.332031 17.835938 2.398438 17.867188 C 2.394531 17.863281 2.390625 17.863281 2.386719 17.859375 C 2.398438 17.867188 2.414062 17.875 2.429688 17.878906 C 2.457031 17.890625 2.484375 17.902344 2.507812 17.914062 C 2.988281 18.117188 3.453125 18.351562 3.890625 18.632812 C 4 18.703125 4.105469 18.777344 4.210938 18.855469 C 4.214844 18.855469 4.21875 18.859375 4.222656 18.859375 C 4.242188 18.875 4.261719 18.890625 4.28125 18.90625 C 4.328125 18.941406 4.371094 18.980469 4.417969 19.019531 C 4.597656 19.171875 4.765625 19.335938 4.925781 19.511719 C 4.964844 19.558594 5.003906 19.605469 5.046875 19.652344 C 5.042969 19.648438 5.042969 19.648438 5.039062 19.644531 C 5.042969 19.648438 5.046875 19.65625 5.054688 19.664062 C 5.058594 19.667969 5.0625 19.671875 5.0625 19.679688 C 5.074219 19.6875 5.082031 19.699219 5.085938 19.707031 C 5.15625 19.800781 5.226562 19.898438 5.289062 19.996094 C 5.351562 20.09375 5.410156 20.195312 5.464844 20.296875 C 5.492188 20.347656 5.519531 20.402344 5.542969 20.453125 C 5.554688 20.476562 5.5625 20.496094 5.574219 20.515625 C 5.65625 20.730469 5.730469 20.949219 5.773438 21.175781 C 5.773438 21.1875 5.78125 21.203125 5.785156 21.21875 C 5.785156 21.222656 5.785156 21.234375 5.789062 21.253906 C 5.792969 21.304688 5.796875 21.355469 5.800781 21.40625 C 5.808594 21.523438 5.808594 21.636719 5.804688 21.753906 C 5.792969 22.058594 6.070312 22.285156 6.359375 22.296875 C 6.378906 22.296875 6.398438 22.296875 6.417969 22.296875 C 6.4375 22.296875 6.457031 22.296875 6.476562 22.296875 C 6.765625 22.285156 7.046875 22.058594 7.03125 21.753906 C 7.027344 21.636719 7.027344 21.523438 7.035156 21.40625 C 7.039062 21.355469 7.046875 21.304688 7.050781 21.253906 C 7.054688 21.234375 7.054688 21.222656 7.054688 21.21875 C 7.058594 21.203125 7.0625 21.1875 7.066406 21.175781 C 7.109375 20.949219 7.179688 20.730469 7.265625 20.515625 C 7.273438 20.496094 7.285156 20.472656 7.292969 20.453125 C 7.320312 20.402344 7.34375 20.347656 7.371094 20.296875 C 7.425781 20.195312 7.484375 20.09375 7.550781 19.996094 C 7.613281 19.898438 7.679688 19.800781 7.75 19.707031 C 7.757812 19.699219 7.765625 19.6875 7.773438 19.679688 C 7.777344 19.671875 7.78125 19.667969 7.785156 19.664062 C 7.789062 19.65625 7.792969 19.652344 7.796875 19.644531 C 7.796875 19.648438 7.796875 19.648438 7.792969 19.652344 C 7.832031 19.605469 7.871094 19.558594 7.914062 19.511719 C 8.070312 19.335938 8.238281 19.171875 8.421875 19.019531 C 8.464844 18.980469 8.511719 18.941406 8.558594 18.90625 C 8.578125 18.890625 8.597656 18.875 8.617188 18.859375 C 8.621094 18.859375 8.621094 18.855469 8.625 18.855469 C 8.730469 18.777344 8.839844 18.703125 8.945312 18.632812 C 9.382812 18.351562 9.851562 18.117188 10.328125 17.914062 C 10.355469 17.902344 10.382812 17.890625 10.410156 17.878906 C 10.421875 17.875 10.4375 17.867188 10.453125 17.859375 C 10.445312 17.863281 10.445312 17.863281 10.4375 17.867188 C 10.503906 17.835938 10.574219 17.8125 10.640625 17.785156 C 10.777344 17.734375 10.914062 17.683594 11.050781 17.632812 C 11.335938 17.527344 11.625 17.425781 11.914062 17.324219 C 12.144531 17.246094 12.332031 17.03125 12.324219 16.789062 C 12.332031 16.546875 12.144531 16.332031 11.914062 16.25 Z M 6.417969 19.746094 C 5.640625 18.25 4.152344 17.410156 2.609375 16.789062 C 4.152344 16.164062 5.640625 15.324219 6.417969 13.832031 C 7.195312 15.324219 8.683594 16.164062 10.226562 16.789062 C 8.683594 17.410156 7.195312 18.25 6.417969 19.746094 Z M 6.417969 19.746094 " fill-opacity="1" fill-rule="nonzero"/></g><path fill="#000000" d="M 7.773438 19.679688 C 7.757812 19.703125 7.757812 19.71875 7.792969 19.652344 C 7.789062 19.65625 7.789062 19.660156 7.785156 19.660156 C 7.78125 19.667969 7.777344 19.671875 7.773438 19.679688 Z M 7.773438 19.679688 " fill-opacity="1" fill-rule="nonzero"/><path fill="#000000" d="M 27.855469 18.425781 L 24.886719 18.347656 C 24.601562 18.339844 24.320312 18.597656 24.332031 18.886719 C 24.347656 19.1875 24.574219 19.425781 24.882812 19.4375 C 25.871094 19.464844 26.859375 19.488281 27.847656 19.515625 C 28.136719 19.523438 28.414062 19.261719 28.402344 18.972656 C 28.390625 18.671875 28.164062 18.433594 27.855469 18.425781 Z M 27.855469 18.425781 " fill-opacity="1" fill-rule="nonzero"/></svg>