<svg xmlns="http://www.w3.org/2000/svg" xmlns:xlink="http://www.w3.org/1999/xlink" width="64" zoomAndPan="magnify" viewBox="0 0 48 48" height="64" preserveAspectRatio="xMidYMid meet" version="1.0"><defs><clipPath id="0a54142089"><path d="M 2.0625 1.570312 L 45.9375 1.570312 L 45.9375 45.449219 L 2.0625 45.449219 Z M 2.0625 1.570312 " clip-rule="nonzero"/></clipPath><clipPath id="324dda7884"><path d="M 24 1.570312 C 11.882812 1.570312 2.0625 11.394531 2.0625 23.511719 C 2.0625 35.625 11.882812 45.449219 24 45.449219 C 36.117188 45.449219 45.9375 35.625 45.9375 23.511719 C 45.9375 11.394531 36.117188 1.570312 24 1.570312 Z M 24 1.570312 " clip-rule="nonzero"/></clipPath><clipPath id="7ef8342aed"><path d="M 0.0625 0.570312 L 43.9375 0.570312 L 43.9375 44.449219 L 0.0625 44.449219 Z M 0.0625 0.570312 " clip-rule="nonzero"/></clipPath><clipPath id="6f834b47ea"><path d="M 22 0.570312 C 9.882812 0.570312 0.0625 10.394531 0.0625 22.511719 C 0.0625 34.625 9.882812 44.449219 22 44.449219 C 34.117188 44.449219 43.9375 34.625 43.9375 22.511719 C 43.9375 10.394531 34.117188 0.570312 22 0.570312 Z M 22 0.570312 " clip-rule="nonzero"/></clipPath><clipPath id="d8befb5350"><rect x="0" width="44" y="0" height="45"/></clipPath><clipPath id="4b712a1b84"><path d="M 3.980469 15.976562 L 15 15.976562 L 15 27 L 3.980469 27 Z M 3.980469 15.976562 " clip-rule="nonzero"/></clipPath><clipPath id="6e4c789f06"><path d="M 33 15.976562 L 43.65625 15.976562 L 43.65625 27 L 33 27 Z M 33 15.976562 " clip-rule="nonzero"/></clipPath></defs><g clip-path="url(#0a54142089)"><g clip-path="url(#324dda7884)"><g transform="matrix(1, 0, 0, 1, 2, 1)"><g clip-path="url(#d8befb5350)"><g clip-path="url(#7ef8342aed)"><g clip-path="url(#6f834b47ea)"><path fill="#d92228" d="M 0.0625 0.570312 L 43.9375 0.570312 L 43.9375 44.449219 L 0.0625 44.449219 Z M 0.0625 0.570312 " fill-opacity="1" fill-rule="nonzero"/></g></g></g></g></g></g><g clip-path="url(#4b712a1b84)"><path fill="#000000" d="M 14.488281 21.214844 C 14.488281 21.558594 14.453125 21.898438 14.386719 22.234375 C 14.320312 22.570312 14.21875 22.898438 14.085938 23.214844 C 13.953125 23.53125 13.792969 23.832031 13.601562 24.117188 C 13.410156 24.402344 13.191406 24.667969 12.949219 24.910156 C 12.703125 25.152344 12.4375 25.371094 12.152344 25.5625 C 11.867188 25.75 11.5625 25.914062 11.246094 26.042969 C 10.925781 26.175781 10.597656 26.273438 10.257812 26.339844 C 9.921875 26.410156 9.578125 26.441406 9.234375 26.441406 C 8.890625 26.441406 8.546875 26.410156 8.210938 26.339844 C 7.871094 26.273438 7.542969 26.175781 7.222656 26.042969 C 6.90625 25.914062 6.601562 25.75 6.316406 25.5625 C 6.027344 25.371094 5.765625 25.152344 5.519531 24.910156 C 5.277344 24.667969 5.058594 24.402344 4.867188 24.117188 C 4.675781 23.832031 4.511719 23.53125 4.382812 23.214844 C 4.25 22.898438 4.148438 22.570312 4.082031 22.234375 C 4.015625 21.898438 3.980469 21.558594 3.980469 21.214844 C 3.980469 20.871094 4.015625 20.53125 4.082031 20.195312 C 4.148438 19.859375 4.25 19.53125 4.382812 19.214844 C 4.511719 18.898438 4.675781 18.597656 4.867188 18.308594 C 5.058594 18.023438 5.277344 17.761719 5.519531 17.519531 C 5.765625 17.277344 6.027344 17.058594 6.316406 16.867188 C 6.601562 16.675781 6.90625 16.515625 7.222656 16.386719 C 7.542969 16.253906 7.871094 16.15625 8.210938 16.085938 C 8.546875 16.019531 8.890625 15.988281 9.234375 15.988281 C 9.578125 15.988281 9.921875 16.019531 10.257812 16.085938 C 10.597656 16.15625 10.925781 16.253906 11.246094 16.386719 C 11.5625 16.515625 11.867188 16.675781 12.152344 16.867188 C 12.4375 17.058594 12.703125 17.277344 12.949219 17.519531 C 13.191406 17.761719 13.410156 18.023438 13.601562 18.308594 C 13.792969 18.597656 13.953125 18.898438 14.085938 19.214844 C 14.21875 19.53125 14.320312 19.859375 14.386719 20.195312 C 14.453125 20.53125 14.488281 20.871094 14.488281 21.214844 Z M 14.488281 21.214844 " fill-opacity="1" fill-rule="nonzero"/></g><path fill="#ffffff" d="M 12.8125 18.988281 C 12.8125 19.222656 12.765625 19.453125 12.675781 19.667969 C 12.582031 19.886719 12.453125 20.078125 12.285156 20.246094 C 12.121094 20.414062 11.925781 20.542969 11.707031 20.632812 C 11.488281 20.722656 11.257812 20.769531 11.023438 20.769531 C 10.785156 20.769531 10.558594 20.722656 10.339844 20.632812 C 10.117188 20.542969 9.925781 20.414062 9.757812 20.246094 C 9.589844 20.078125 9.460938 19.886719 9.371094 19.667969 C 9.277344 19.453125 9.234375 19.222656 9.234375 18.988281 C 9.234375 18.753906 9.277344 18.523438 9.371094 18.308594 C 9.460938 18.089844 9.589844 17.898438 9.757812 17.730469 C 9.925781 17.5625 10.117188 17.433594 10.339844 17.34375 C 10.558594 17.253906 10.785156 17.207031 11.023438 17.207031 C 11.257812 17.207031 11.488281 17.253906 11.707031 17.34375 C 11.925781 17.433594 12.121094 17.5625 12.285156 17.730469 C 12.453125 17.898438 12.582031 18.089844 12.675781 18.308594 C 12.765625 18.523438 12.8125 18.753906 12.8125 18.988281 Z M 12.8125 18.988281 " fill-opacity="1" fill-rule="nonzero"/><g clip-path="url(#6e4c789f06)"><path fill="#000000" d="M 43.640625 21.214844 C 43.640625 21.558594 43.609375 21.898438 43.542969 22.234375 C 43.472656 22.570312 43.375 22.898438 43.242188 23.214844 C 43.109375 23.53125 42.949219 23.832031 42.757812 24.117188 C 42.566406 24.402344 42.347656 24.667969 42.105469 24.910156 C 41.859375 25.152344 41.59375 25.371094 41.308594 25.5625 C 41.019531 25.75 40.71875 25.914062 40.398438 26.042969 C 40.082031 26.175781 39.753906 26.273438 39.414062 26.339844 C 39.078125 26.410156 38.734375 26.441406 38.390625 26.441406 C 38.046875 26.441406 37.703125 26.410156 37.363281 26.339844 C 37.027344 26.273438 36.699219 26.175781 36.378906 26.042969 C 36.0625 25.914062 35.757812 25.75 35.472656 25.5625 C 35.183594 25.371094 34.917969 25.152344 34.675781 24.910156 C 34.433594 24.667969 34.214844 24.402344 34.023438 24.117188 C 33.832031 23.832031 33.667969 23.53125 33.539062 23.214844 C 33.40625 22.898438 33.304688 22.570312 33.238281 22.234375 C 33.171875 21.898438 33.136719 21.558594 33.136719 21.214844 C 33.136719 20.871094 33.171875 20.53125 33.238281 20.195312 C 33.304688 19.859375 33.40625 19.53125 33.539062 19.214844 C 33.667969 18.898438 33.832031 18.597656 34.023438 18.308594 C 34.214844 18.023438 34.433594 17.761719 34.675781 17.519531 C 34.917969 17.277344 35.183594 17.058594 35.472656 16.867188 C 35.757812 16.675781 36.0625 16.515625 36.378906 16.386719 C 36.699219 16.253906 37.027344 16.15625 37.363281 16.085938 C 37.703125 16.019531 38.046875 15.988281 38.390625 15.988281 C 38.734375 15.988281 39.078125 16.019531 39.414062 16.085938 C 39.753906 16.15625 40.082031 16.253906 40.398438 16.386719 C 40.71875 16.515625 41.019531 16.675781 41.308594 16.867188 C 41.59375 17.058594 41.859375 17.277344 42.105469 17.519531 C 42.347656 17.761719 42.566406 18.023438 42.757812 18.308594 C 42.949219 18.597656 43.109375 18.898438 43.242188 19.214844 C 43.375 19.53125 43.472656 19.859375 43.542969 20.195312 C 43.609375 20.53125 43.640625 20.871094 43.640625 21.214844 Z M 43.640625 21.214844 " fill-opacity="1" fill-rule="nonzero"/></g><path fill="#ffffff" d="M 41.964844 18.988281 C 41.964844 19.222656 41.921875 19.453125 41.828125 19.667969 C 41.738281 19.886719 41.609375 20.078125 41.441406 20.246094 C 41.273438 20.414062 41.082031 20.542969 40.863281 20.632812 C 40.644531 20.722656 40.414062 20.769531 40.175781 20.769531 C 39.941406 20.769531 39.710938 20.722656 39.492188 20.632812 C 39.273438 20.542969 39.082031 20.414062 38.914062 20.246094 C 38.746094 20.078125 38.617188 19.886719 38.523438 19.667969 C 38.433594 19.453125 38.390625 19.222656 38.390625 18.988281 C 38.390625 18.753906 38.433594 18.523438 38.523438 18.308594 C 38.617188 18.089844 38.746094 17.898438 38.914062 17.730469 C 39.082031 17.5625 39.273438 17.433594 39.492188 17.34375 C 39.710938 17.253906 39.941406 17.207031 40.175781 17.207031 C 40.414062 17.207031 40.644531 17.253906 40.863281 17.34375 C 41.082031 17.433594 41.273438 17.5625 41.441406 17.730469 C 41.609375 17.898438 41.738281 18.089844 41.828125 18.308594 C 41.921875 18.523438 41.964844 18.753906 41.964844 18.988281 Z M 41.964844 18.988281 " fill-opacity="1" fill-rule="nonzero"/><path fill="#000000" d="M 17.445312 28.222656 C 17.445312 28.222656 24.585938 35.054688 30.816406 28.085938 C 31.066406 27.804688 31.039062 27.378906 30.757812 27.128906 C 30.480469 26.878906 30.046875 26.90625 29.796875 27.183594 C 24.484375 33.132812 18.390625 27.246094 18.390625 27.246094 C 18.117188 26.988281 17.691406 26.996094 17.425781 27.261719 C 17.167969 27.53125 17.171875 27.960938 17.445312 28.222656 Z M 17.445312 28.222656 " fill-opacity="1" fill-rule="evenodd"/><path fill="#000000" d="M 28.832031 25.726562 C 28.832031 25.726562 29.445312 27.878906 32.703125 28.886719 C 33.058594 29 33.441406 28.800781 33.550781 28.441406 C 33.664062 28.085938 33.464844 27.707031 33.105469 27.59375 C 30.667969 26.839844 30.128906 25.324219 30.128906 25.324219 C 30.019531 24.964844 29.636719 24.769531 29.273438 24.878906 C 28.917969 24.992188 28.71875 25.371094 28.832031 25.726562 Z M 28.832031 25.726562 " fill-opacity="1" fill-rule="evenodd"/><path fill="#000000" d="M 18.980469 25.324219 C 18.980469 25.324219 18.441406 26.839844 16.003906 27.59375 C 15.648438 27.707031 15.449219 28.085938 15.558594 28.441406 C 15.667969 28.800781 16.050781 29 16.410156 28.886719 C 19.664062 27.878906 20.277344 25.726562 20.277344 25.726562 C 20.394531 25.371094 20.191406 24.992188 19.835938 24.878906 C 19.476562 24.769531 19.09375 24.964844 18.980469 25.324219 Z M 18.980469 25.324219 " fill-opacity="1" fill-rule="evenodd"/></svg>